<?xml version="1.0" encoding="utf-8"?><svg viewBox="0 0 610 728" xmlns="http://www.w3.org/2000/svg" xmlns:xlink="http://www.w3.org/1999/xlink"><style>:root>svg{display:none}:root>svg:target{display:block}</style><svg fill="none" viewBox="0 0 17 17" id="cursor-castom" xmlns="http://www.w3.org/2000/svg"><circle opacity=".4" cx="8.5" cy="8.5" r="8" stroke="#000"/></svg><svg fill="none" viewBox="0 0 39 7" id="cursor-slider" xmlns="http://www.w3.org/2000/svg"><path d="M.8.398h2.016c.831 0 1.498.263 2 .79.5.526.75 1.196.75 2.011 0 .818-.25 1.489-.75 2.012-.502.526-1.169.789-2 .789H.801V.398zm3.63 4.465c.396-.44.593-.995.593-1.664 0-.669-.197-1.224-.593-1.664C4.03 1.098 3.493.88 2.816.88H1.328v4.64h1.488c.677 0 1.215-.218 1.614-.656zM11.523 6h-.597L9.469 3.793H7.613V6h-.527V.398h2.23c.604 0 1.08.151 1.426.454.341.302.512.717.512 1.246 0 .234-.038.451-.114.652a1.286 1.286 0 01-.285.473 1.682 1.682 0 01-.347.28c-.206.129-.366.192-.48.192L11.522 6zM7.613.879v2.433h1.703c.435 0 .776-.106 1.024-.32.247-.216.37-.514.37-.894 0-.378-.123-.676-.37-.895C10.087.987 9.746.88 9.316.88H7.613zm7.008-.48h.726L17.644 6h-.55l-.555-1.344h-3.11L12.875 6h-.551L14.62.398zm-.992 3.777h2.71L14.997.863h-.024L13.63 4.176zM23.714 6h-.511V4.785h-.024c-.018.055-.036.1-.054.137-.021.047-.093.15-.215.308-.11.149-.24.282-.39.399-.155.117-.364.22-.63.309-.268.093-.564.14-.887.14-.815 0-1.472-.27-1.972-.808-.5-.537-.75-1.227-.75-2.07 0-.845.251-1.535.754-2.071.5-.54 1.169-.809 2.008-.809.432 0 .82.075 1.164.223.34.151.604.33.789.539.174.206.321.415.441.629.12.21.197.393.23.547l.047.222h-.55l-.008-.015a3.53 3.53 0 00-.074-.254 2.861 2.861 0 00-.211-.398 2.202 2.202 0 00-.375-.477 1.984 1.984 0 00-.598-.36 2.215 2.215 0 00-.855-.16c-.685 0-1.224.224-1.618.672-.398.45-.597 1.021-.597 1.711 0 .688.198 1.257.593 1.707.394.453.921.68 1.582.68.329 0 .625-.061.891-.184.268-.125.474-.268.617-.43.146-.163.267-.343.364-.538.158-.32.238-.577.238-.77h-2.04v-.48h2.641V6zm8.8-5h-.023l-1.894 3.434h-.676L28.027 1h-.024v5h-.527V.398h.824l1.95 3.563h.019L32.218.398h.824V6h-.527V1zm6.333 5h-4.04V.398h4.04v.48h-3.512v2.009h3.055v.48h-3.055V5.52h3.512V6z" fill="#000"/></svg><svg fill="none" viewBox="0 0 610 728" id="vector" xmlns="http://www.w3.org/2000/svg"><path d="M139.416 31.465C-159.248 309.376 101.471 367.764 214.964 1 336.277 136.37 767.08 317.52 345.08 103.2c249.464 421.158 298.621 150.841 244.533 624.277" stroke="#2828BD"/></svg></svg>